<svg width="40" height="40" viewBox="0 0 40 40" fill="none" xmlns="http://www.w3.org/2000/svg">
<path d="M29.0002 12.5084C28.2167 13.0731 27.3492 13.5049 26.4312 13.7874C25.9384 13.2085 25.2835 12.7982 24.5551 12.612C23.8267 12.4258 23.0598 12.4726 22.3583 12.7462C21.6568 13.0198 21.0544 13.5069 20.6327 14.1416C20.2109 14.7764 19.9902 15.5281 20.0002 16.2953V17.1312C18.5624 17.1693 17.1376 16.8435 15.8529 16.1828C14.5681 15.5221 13.4632 14.547 12.6366 13.3444C12.6366 13.3444 9.36388 20.8679 16.7275 24.2117C15.0425 25.3803 13.0352 25.9663 11.0002 25.8836C18.3639 30.0633 27.3639 25.8836 27.3639 16.2702C27.3631 16.0373 27.3412 15.805 27.2984 15.5763C28.1335 14.735 28.7227 13.6726 29.0002 12.5084V12.5084Z" stroke="white" stroke-width="2" stroke-linecap="round" stroke-linejoin="round"/>
</svg>
